<?xml version="1.0" encoding="iso-8859-1"?>
<!-- Generator: Adobe Illustrator 19.0.0, SVG Export Plug-In . SVG Version: 6.00 Build 0)  -->
<svg version="1.1" id="Layer_1" xmlns="http://www.w3.org/2000/svg" xmlns:xlink="http://www.w3.org/1999/xlink" x="0px" y="0px"
	 viewBox="0 0 511.999 511.999" style="enable-background:new 0 0 511.999 511.999;" xml:space="preserve">
<path style="fill:#FFD782;" d="M224.344,408.237l-0.708-376.737c-0.025-13.284-14.401-24.02-32.108-23.987
	c-17.707,0.033-32.043,10.823-32.018,24.107l0.708,376.737l0.005,0.014l64.115-0.121L224.344,408.237z"/>
<polygon style="fill:#707487;" points="224.339,408.251 160.224,408.372 192.462,504.485 "/>
<path style="fill:#EFF2FA;" d="M223.636,31.502c-0.025-13.284-14.401-24.02-32.108-23.987
	c-17.707,0.033-32.043,10.823-32.018,24.107l0.03,16.018l64.125-0.121L223.636,31.502z"/>
<polygon style="fill:#FFD782;" points="159.54,47.64 160.219,408.358 160.224,408.372 224.339,408.251 224.344,408.237 
	223.666,47.519 "/>
<polygon style="fill:#FFC36E;" points="159.54,47.527 160.219,71.713 160.224,71.714 224.339,71.706 224.344,71.705 223.666,47.519 
	"/>
<path style="fill:#EFF2FA;" d="M223.666,47.519l-0.03-16.017c-0.025-13.262-14.355-23.984-32.023-23.985l0.044,40.007
	L223.666,47.519z"/>
<path style="fill:#D7DEED;" d="M159.54,47.528l32.117-0.004l-0.044-40.007c-0.029,0-0.057-0.001-0.085-0.001
	c-17.707,0.033-32.043,10.823-32.018,24.107l0.03,16.018h0.003L159.54,47.528z"/>
<polygon style="fill:#FFC36E;" points="191.683,71.71 160.224,71.714 160.219,71.713 159.543,47.64 159.54,47.64 160.219,408.358 
	160.224,408.372 192.051,408.312 "/>
<polygon style="fill:#FFD782;" points="191.683,71.71 192.051,408.312 224.339,408.251 224.344,408.237 223.711,71.705 "/>
<g>
	<polygon style="fill:#FFC36E;" points="224.339,71.705 224.344,71.704 223.666,47.519 223.711,71.705 	"/>
	<polygon style="fill:#FFC36E;" points="191.657,47.523 159.54,47.528 159.543,47.64 191.657,47.579 	"/>
	<polygon style="fill:#FFC36E;" points="191.657,47.579 223.666,47.519 191.657,47.523 	"/>
</g>
<polygon style="fill:#FFAA5A;" points="159.543,47.64 160.219,71.713 160.224,71.714 191.683,71.71 191.657,47.579 "/>
<polygon style="fill:#FFC36E;" points="191.683,71.71 223.711,71.705 223.666,47.519 191.657,47.579 "/>
<polygon style="fill:#EFF2FA;" points="192.051,408.312 192.095,448.388 211.056,448.353 224.339,408.251 "/>
<polygon style="fill:#707487;" points="192.095,448.388 173.657,448.422 192.155,503.572 192.462,504.485 211.056,448.353 "/>
<polygon style="fill:#D7DEED;" points="192.051,408.312 160.224,408.372 173.657,448.422 192.095,448.388 "/>
<rect x="256.106" y="191.648" transform="matrix(-1 0.0019 -0.0019 -1 608.8635 486.921)" style="fill:#EFF2FA;" width="96.188" height="104.204"/>
<path style="fill:#18BDF6;" d="M352.127,159.511c-0.016-8.817-7.244-16.017-16.061-16.001l-64.125,0.121
	c-8.817,0.017-16.018,7.244-16.001,16.061l0.06,32.057l96.188-0.18L352.127,159.511z"/>
<path style="fill:#FF6464;" d="M256.195,295.952l0.105,56.116c0.017,8.817,7.244,16.017,16.061,16.001l64.125-0.12
	c8.817-0.017,16.017-7.244,16.001-16.061l-0.105-56.116L256.195,295.952z"/>
<path style="fill:#D2555A;" d="M266.694,327.921c-5.792,0.006-10.478,6.077-10.452,13.542l0.06,17.7
	c0.017,4.908,7.244,8.914,16.061,8.905l64.125-0.067c8.817-0.009,16.017-4.032,16.001-8.939l-0.06-17.796
	c-0.025-7.429-4.706-13.431-10.469-13.425L266.694,327.921z"/>
<rect x="256.24" y="342.269" style="fill:#D7DEED;" width="96.248" height="8.767"/>
<path d="M191.514,0c-21.823,0.041-39.551,14.233-39.518,31.636l0.708,376.736c0.001,0.809,0.133,1.61,0.39,2.376l32.244,96.127
	c1.027,3.063,3.896,5.125,7.125,5.125c0.004,0,0.009,0,0.014,0c3.234-0.006,6.102-2.081,7.119-5.152l31.881-96.248
	c0.253-0.767,0.383-1.569,0.381-2.377l-0.708-376.737C231.117,14.126,213.38,0,191.514,0z M205.63,440.837l-26.574,0.05
	l-8.395-25.03l43.272-0.082L205.63,440.837z M167.069,55.154l17.033-0.032l0.543,289.064c0.008,4.146,3.371,7.501,7.515,7.501
	c0.005,0,0.01,0,0.015,0c4.15-0.008,7.509-3.379,7.501-7.529l-0.543-289.065l16.532-0.031c0.169,0,0.335-0.015,0.501-0.026
	l0.649,345.729c-0.161-0.01-0.323-0.024-0.486-0.024c-0.005,0-0.01,0-0.015,0l-16.532,0.031l-0.046-24.551
	c-0.008-4.146-3.371-7.501-7.515-7.501c-0.005,0-0.01,0-0.015,0c-4.15,0.008-7.509,3.379-7.501,7.529l0.046,24.552l-16.532,0.031
	c-0.169,0-0.335,0.015-0.501,0.026L167.069,55.154z M191.61,15.029c13.269,0,24.494,7.55,24.511,16.485l0.016,8.543
	c-0.161-0.01-0.322-0.024-0.486-0.024c-0.005,0-0.01,0-0.015,0l-24.027,0.045c-0.002,0-0.003,0-0.005,0c-0.005,0-0.01,0-0.015,0
	c-0.002,0-0.004,0-0.006,0l-24.543,0.046l-0.016-8.517C167.008,22.647,178.235,15.054,191.61,15.029z M192.418,480.722
	l-8.324-24.817l16.554-0.03L192.418,480.722z"/>
<path d="M359.898,295.769v-0.005c0-0.002,0-0.003,0-0.003l-0.257-136.263c-0.024-12.959-10.587-23.502-23.59-23.502l-64.125,0.12
	c-12.983,0.024-23.526,10.607-23.502,23.59l0.257,136.264v0.001v0.001l0.105,56.109c0.024,12.959,10.586,23.502,23.546,23.502
	c0.004,0,0.04,0,0.044,0l64.125-0.12c12.983-0.024,23.526-10.607,23.502-23.589L359.898,295.769z M263.529,199.256l81.159-0.152
	l0.167,89.174l-81.159,0.151L263.529,199.256z M271.955,151.146l64.141-0.12c4.687,0,8.508,3.813,8.517,8.5l0.046,24.548
	l-81.159,0.152l-0.046-24.548C263.445,154.982,267.259,151.154,271.955,151.146z M342.477,357.914
	c-1.614,1.62-3.746,2.516-6.004,2.52l-64.125,0.12l-0.016,7.515v-7.515c-4.687,0-8.508-3.813-8.517-8.5l-0.091-48.595l81.159-0.151
	l0.091,48.595C344.978,354.158,344.091,356.294,342.477,357.914z"/>
<path d="M311.669,223.712c-0.008-4.146-3.371-7.501-7.515-7.501c-0.005,0-0.01,0-0.015,0c-4.15,0.008-7.509,3.379-7.501,7.529
	l0.075,40.078c0.008,4.146,3.371,7.501,7.515,7.501c0.005,0,0.01,0,0.015,0c4.15-0.008,7.509-3.379,7.501-7.529L311.669,223.712z"/>
<g>
</g>
<g>
</g>
<g>
</g>
<g>
</g>
<g>
</g>
<g>
</g>
<g>
</g>
<g>
</g>
<g>
</g>
<g>
</g>
<g>
</g>
<g>
</g>
<g>
</g>
<g>
</g>
<g>
</g>
</svg>
